<svg xmlns="http://www.w3.org/2000/svg" width="16" height="16" viewBox="0 0 16 16"
>
  <path d="M7.98 0L.45 2.65l1.19 9.86L7.99 16l6.37-3.54 1.2-9.86L7.97 0z" fill="#B3B3B3"/>
  <path d="M14.8 3.17L7.96.84v14.33l5.74-3.18 1.1-8.82z" fill="#A6120D"/>
  <path d="M1.3 3.21l1.01 8.83 5.65 3.13V.84L1.29 3.2z" fill="#DD1B16"/>
  <path d="M9.84 8.47l-1.88.88H5.97l-.93 2.33-1.73.03L7.96 1.36l1.88 7.1zm-.18-.45L7.97 4.68 6.6 7.97h1.37l1.7.05z" fill="#F2F2F2"/>
  <path d="M7.96 1.36l.01 3.32 1.57 3.29H7.96v1.38h2.19l1.02 2.36 1.66.03L7.96 1.36z" fill="#B3B3B3"/>
</svg>
