<svg xmlns="http://www.w3.org/2000/svg" viewBox="0 0 16 16" fill="#7b11f8">
  <path d="M3.323 1c-.913 0-1.588.815-1.558 1.699.029.849-.009 1.949-.28 2.846-.272.9-.733 1.468-1.485 1.54v.83c.752.072 1.213.64 1.485 1.54.271.897.309 1.997.28 2.846-.03.884.645 1.699 1.558 1.699h9.355c.913 0 1.588-.815 1.558-1.699-.029-.849.009-1.949.28-2.846.273-.9.732-1.468 1.484-1.54v-.83c-.752-.072-1.211-.64-1.484-1.54-.271-.897-.309-1.997-.28-2.846.03-.884-.645-1.699-1.558-1.699H3.323Zm7.393 8c0 1.218-.891 1.956-2.369 1.956H5.622a.062.062 0 0 1-.044-.019.065.065 0 0 1-.019-.045V4.105c0-.017.007-.033.019-.045a.062.062 0 0 1 .044-.018h2.71c1.233 0 2.042.68 2.042 1.725 0 .733-.544 1.389-1.237 1.504v.038c.943.106 1.579.772 1.579 1.692ZM8.073 4.919H6.638v2.066h1.208c.934 0 1.45-.384 1.45-1.069 0-.642-.444-.997-1.223-.997ZM6.638 7.803v2.276h1.488c.972 0 1.487-.398 1.487-1.145 0-.748-.53-1.131-1.55-1.131H6.638Z"/>
</svg>
