<svg xmlns="http://www.w3.org/2000/svg" viewBox="0 0 16 16" fill="currentColor">
  <path d="M15.5 12.02c-.55.13-.89 0-1.19-.44l-2.16-2.9-.31-.4-2.53 3.3c-.29.4-.59.58-1.13.44l3.24-4.2-3.01-3.8c.51-.1.87-.06 1.19.4l2.24 2.93 2.26-2.92c.29-.4.6-.55 1.12-.4l-1.17 1.5-1.58 2c-.19.22-.16.38.01.6l3.02 3.89ZM.7 6.48A3.66 3.66 0 0 1 6.43 4.5c1.19.9 1.48 2.2 1.42 3.63h-6.7c-.1 2.58 1.82 4.14 4.27 3.35a2.49 2.49 0 0 0 1.62-1.75c.12-.4.34-.47.73-.35a3.27 3.27 0 0 1-1.62 2.4c-1.44.8-3.5.54-4.58-.57A3.55 3.55 0 0 1 .53 8.87c-.1-1.46.04-1.9.18-2.39Zm.45 1.09h6.06c-.04-1.87-1.24-3.2-2.88-3.21-1.8-.01-3.1 1.28-3.18 3.2Z"/>
</svg>
