<svg xmlns="http://www.w3.org/2000/svg" width="16" height="16" viewBox="0 0 16 16" fill="#FF4387">
  <path d="M14.263 8.331l-.572-.068a.182.182 0 00-.205.16A4.606 4.606 0 016.32 11.45c-.286-.194-.183-.606.149-.686l2.4-.65a.391.391 0 00.285-.46.391.391 0 00-.468-.272l-4.583 1.234a.392.392 0 00-.269.463.379.379 0 00.463.269.64.64 0 01.663.182 5.554 5.554 0 004.412 1.657 5.554 5.554 0 005.05-4.651c.012-.091-.056-.183-.16-.206zM1.429 8.183a.392.392 0 01-.463-.269.392.392 0 01.268-.463l1.829-.491a.681.681 0 00.457-.503 5.554 5.554 0 012.812-3.703 5.554 5.554 0 016.742 1.212.162.162 0 01-.011.251l-.583.491a4.606 4.606 0 00-7.794 1.155c-.126.32.171.617.503.525l.251-.068a.39.39 0 01.463.268.39.39 0 01-.269.463c-1.403.37-2.808.742-4.205 1.132z"/>
  <path d="M7.83 8.31a.377.377 0 00-.195-.73l-1.093.293a.377.377 0 00.196.729l1.092-.293zM5.35 8.963a.377.377 0 00-.194-.728L.386 9.513a.377.377 0 00.196.728l4.769-1.278zM10.62 7.58a.377.377 0 00-.196-.728l-1.457.39a.377.377 0 10.195.729l1.457-.39z"/>
  <path fill-rule="evenodd" d="M11.166 6.914a2.42 2.42 0 104.674-1.257 2.42 2.42 0 00-4.674 1.257zm2.331 1.075c.972 0 1.749-.766 1.749-1.715 0-.937-.777-1.702-1.749-1.702-.971 0-1.737.765-1.737 1.714 0 .937.777 1.703 1.737 1.703z"/>
</svg>
