<svg xmlns="http://www.w3.org/2000/svg" viewBox="0 0 16 16" fill="#E535AB">
  <path d="M14.147 9.9v-3.8A1.43 1.43 0 0015.05 4a1.429 1.429 0 00-2.273-.266l-3.29-1.9a1.425 1.425 0 10-2.734-.002l-3.291 1.9A1.427 1.427 0 102.094 6.1v3.802a1.427 1.427 0 101.369 2.37l3.29 1.899a1.424 1.424 0 00.73 1.679 1.427 1.427 0 001.991-1.725l3.271-1.889c.264.297.649.483 1.076.479a1.428 1.428 0 00.326-2.814zm-10.33 1.05a1.426 1.426 0 00-.401-.693l4.307-7.461c.267.078.542.074.796 0l4.307 7.46a1.424 1.424 0 00-.403.694H3.817zm8.76-5.524c.201.35.528.58.891.67v3.807l-.054.015-4.308-7.46a1.41 1.41 0 00.038-.039l3.299 1.905c-.102.358-.065.754.135 1.102zM7.136 2.458L2.83 9.918a1.41 1.41 0 00-.057-.016V6.098a1.429 1.429 0 001.026-1.777l3.296-1.903.041.04zm2.04 11.156a1.425 1.425 0 00-2.082-.03l-3.292-1.9c.006-.018.01-.037.015-.056h8.609c.007.032.016.063.026.094l-3.277 1.892z" />
</svg>
