<svg xmlns="http://www.w3.org/2000/svg" xml:space="preserve" class="greensock-logo" style="enable-background:new 0 0 279 277.18" viewBox="0 0 279.2 277.2">
	<style>
		.st0{fill:none}.st2{opacity:0}.st3{fill:#efefef}.st4{fill:#88ce02}.st5,.st6{opacity:.3;fill-rule:evenodd;clip-rule:evenodd}.st6{opacity:.4}
	</style>
	<g class="logo-bg">
		<circle id="circle" cx="154.2" cy="144.9" r="124.3" />
	</g>
	<g class="logo-guy">
		<path d="M112.3 175zM114.6 175.5zM116.8 176.2zM109 174.5zM218.9 118.3c-.9-3-7.8-5.7-4.2-13.3-1.8-.4-3-1-3.9-1.9-1.2 3.7-2.2 8-2.2 13l-.4 4.2c1-1 2.4-1.8 3.7-1.7 2.8.2 5.3.7 7-.3zM106.2 174.3zM121.6 178l-.7-.3.7.4zM131.6 185.5l-.2-.2.2.2zM129 183l-.2-.2.2.2zM135 189.8l-.7-1 .7 1zM123.4 179l-.6-.3.6.3zM97.8 174.2zM133.7 188l-.4-.5.4.5zM125 180l-.4-.3.4.3zM119 176.9l-1.1-.4 1 .4zM59.8 137.7zM100.3 174.1zM60 139.8c0-.6 0-1.2-.2-1.7l.3 1.7zM59.5 135.7l-.4-1.9.4 1.9zM50.2 113.8zM59 133.7zM130 184c.2 0 .3.2.4.3l-.3-.3zM81.1 172zM60.4 142.3l-.3-2.1.3 2.1z" class="st0" />
		<path d="M146 133.9c.3 0 2 1.4 2.6 2 .7.5 2 .5 2 .5-1.7-1.4-3.2-2-4.5-2.6h-.1z" style="fill:#001423" />
		<path d="M185.4 50.4c1.6.3 4.4-1.3 6.4-2.5l1-.6c-.5-1.2 0-3.1-.1-6.2l-.3-4.8a27.7 27.7 0 0 1-5.9 4.5c-1.1.5-3.6.3-6.6.3-3 0-6.6.1-8-1.1-1.6-1.3-3.4-3.1-5-4.8l-.2 1c-.1 2-.3 3.3-.6 4.9-.1.5 1.3 1.7 3 4 4 2.4 13.3 4.6 16.3 5.3zM236.1 104.2c-1.4-4.8-5.4-5.6-11.8-2 2.5-4.2 6-4.2 6.5-5.8 2.4-6.9-1.7-12.9-3.4-14.9 2-5.1 4-12.5-2.8-19a12.4 12.4 0 0 0-10-3.1c5.1 4.8 9.4 12.3 7 20-.3 1-2.5 2-4.7 3 0 0 1.2 5.4-1 9.7-.9 1.7-2.2 4.1-3.5 7.1v.2c2.8 2.5 4.6 2.8 8.4 3.5-2.6.2-3.4 1-3.5 1.6-2 9.3 4 9.6 4.2 14.9v.3c-.9.9-4 1.5-7 1.4-3-.1-5.2 2.7-5.2 2.7l-1.1 1.2v2.8c0 1.2.9 4.5 1.3 7 2.6 1.5 3.8 2.5 6.3 3.1a8 8 0 0 0 4 .3 6 6 0 0 0 3-1.9c4.2-4.6 5.4-9 6-11.4l.1-.7.3.5c4.2-4.7 9.1-13.3 7-20.5zM207.4 139.1c-.3-2.3-1.2-5-1.8-8.6-.5-2.6-1.1-5.5-1.2-9.5l.2-.8v-.2a88 88 0 0 1-29.4-1 38.6 38.6 0 0 1-11.5-4l-.2 2-.2 2-.6 1.7.3.3c1.3 1.6 4.3 3.7 4.3 5.8v.6c-.4 1.2-1.2 1.5-2.3 2.7-.5.6-4 4.3-4.8 4.8-.5.3-1 .8-1.6 1l-2.4 1.7-.8.4c-9.3 29.5-5 42.4-3.1 48.5-5.2 6.5-8.8 10.2-10.7 16.2l-.2.7c-4.8 15.4-3 28.6-5 41.6a27 27 0 0 0 13.2 1.7c.6-.1 0-11 1.8-15.8 2.4-6.6 6.5-12.1 8.4-24v-.3l.1-.2.3-5.6c0-.5-1.8 1-3 2.6 1-5 3.6-6 5.7-9 1-1.3 1.7-3.1 1.8-5.6a41.9 41.9 0 0 0 17.6-26.5c1.7-6.9 4-17.8 6.9-20.8-.7 2.6-1.3 5.1-1.7 7.5-1.8 9.8-1.8 17.3-5.4 25.6 2.7 7.3 5.4 11 5.7 21.3-5.6-.1-8.9 4.5-10.2 9h.3l.7.2c3.8.7 11.2 1.5 22.8 0 .4-1.6.8-3 1.3-4.3.9-2.2 1.5-4.2 1.8-6.1a24 24 0 0 0-.1-9c9.4-10.5 5.8-30.8 3-46.6z" class="st3" />
		<path d="M212.5 79.9a56 56 0 0 0-38.5-1.8c-2.6.7-5.1 1.3-8 .3a29.8 29.8 0 0 1-13.4-8.4l-1.1 1.6a19 19 0 0 1-4 14.4c2.7 3.4 7.3 7.9 10 9.4 3 1.6 4.8 2 9.6 1.1-1.8 1.9-3 2.8-5.3 4 .1 2 .6 5.6 1.4 9.5a60.6 60.6 0 0 0 19 8.2 98 98 0 0 0 22.7-.3h.1c-.6-13.5 3-20.4 5.6-25.8 2.4-5 2.3-9.8 1.9-12.2zM169 29.1c.2 3.5 1.2 5.8 3 8.5.7.5 1.5 1 2.2 1.1 3 .7 8.7.7 11.8 0 1.7-.5 4-3.6 4.5-6.2.6-3.4 1.2-5.8 1.3-7.9.3-2 .6-6.7.7-8a31.7 31.7 0 0 0-.5-8.8c-.4-1.5-4-4-12.2-4-8.7 0-11.2 2.6-11.4 4a70.6 70.6 0 0 0-.6 14c.1 2.6.8 4 1.1 7.3zM147.1 255c1 .3 1.8 1.6 2.2.9.6-1.5-1.2-4.1-1.3-6.1v-.3c-1.5-1.2-11.1-1.4-10.5-.7-1.1 2.2-2.9 1.7-3.6 5.8-.3 2 2.3.3 4.6.2-4.2 2.9-9.2 6.6-10 9.8-1 4.3.7 5.6 5.4 8 4.1 1 9 1.2 12.9 1 4.2-.8 5.1-2.8 3.8-5.8-1.9-4.2-3-9.8-3.5-12.8z" class="st3" />
		<path d="M143.3 123.6c-1 4.7 1.4 6.8 5.2 9.5 1.8 1.2 0 1.4 1.5 2.1 1.6.8 3.3 1.5 5 .6l1.6-1.3a29.4 29.4 0 0 0 5.8-5.2 9 9 0 0 0 1.8-2.7c.4-1.6-2.1-3.3-3.7-4.9-2.8-2.8-6.9-3.9-11-4-7-7.3-9.7-14-11.8-19a31.8 31.8 0 0 0-11-13.8c3 1.2 5 2.2 6.4 3.2 1.5 1 3.5 1 5.4.5 6.8-2.3 10.4-11.9 10.8-17.9.7-.9 1.7-2.9 2.3-3.8l.2.2a103.8 103.8 0 0 0 10.3 7c3.8 2 6.4 2 14.9-.3a72.1 72.1 0 0 1 18.8-2.1c5.6 0 10.5 1.5 15.2 3.5 2.3 1 6.3 3.6 7.2-.7a22.2 22.2 0 0 0-5-15.1 39.5 39.5 0 0 0-8.6-5.5h-.4l-2.1-.8-.3-.1c-.6-.3-1-.5-1.6-.6-.5-.2-1-.2-1.7-.2l-2 .3-4.7 1.2c-1.9.6-3.6 1.1-5.7 1.1-1.2 0-2.6-.1-4.2-.5l-4.7-1.2c-3.5-1-5.6-1.5-10.1-1.4-.9.1-1.9.3-3 .3-2.9.2-6.1.2-9-.2a21 21 0 0 1-6.5-1.8 21 21 0 0 0-10.5 0c-7 1.3-13.9 6.4-14 13.7 0 .4 4.9 2 6.4 7.7-2.4-3.2-6.5-7-11.5-3.8-5.1 3.3-2.5 11-9.6 19-2.3 2.6-2 5.8.6 12.1 4 9.8 22.6 15.2 33.4 24.2l-.2.7z" class="st3" />
		<path d="M142.6 90.5c-1.6 1-3.1 1.8-4.3 2.2 4.1 6.2 2 11 12.2 23.2 1.3.1 4.5.4 7.4 1.4 0-1.2.2-2.2.4-3.7h.4c-1-5.1-1.3-8-2.2-11.8-4.7-3-9.5-6.2-13.9-11.3zM145.4 135.9v-1l.3-1c0-.4-1.3-1.2-1.5-1.4-1.8-1.7-3.1-3.4-3.4-5.9v-2c-.2-.4-1-.7-1.3-1a44.4 44.4 0 0 0-9.4-5.7c-7.8-4-17.2-7-22.8-14-1.6-2.2-2.7-4.5-3.7-7s-2.4-5.7-1.5-8.5c-2.5 1-5 1.8-7.5 2.9l-9 4a663.5 663.5 0 0 0-35.4 18.5 36.7 36.7 0 0 1 8 16c1.5 5.9 1.8 11.9 2.9 17.8 1 5.6 3 11.1 6.6 15.6 3.8 4.7 9.2 7.6 15 9.2a72.5 72.5 0 0 0 19.2 1.7c6.2 0 12.5.8 18.2 3.3a35.3 35.3 0 0 1 14.5 11.7 9.8 9.8 0 0 0 4.7 4.2l.7.3c.6 0 .6-.2 1-.7l3-3.8 1.6-2c.3-.2.7-.6.8-1 .2-.5 0-1.2-.2-1.8-3.3-15.5.5-31 5.6-45.6a9.5 9.5 0 0 1-6.4-2.8z" class="st4" />
		<path d="M107 81.6c.9-1.7 1.6-4 2.5-7.4 2.8-9.8 8.2-10 10.6-10.4.1-3.3 1.2-6 2.8-8.3a290.2 290.2 0 0 0-78.2 32.7c-11.6 7.1-36 23.3-40.7 54.2 7-7.7 17.4-16 30.5-24.4l.4-.3c3.7-2.3 7.6-4.7 11.7-7v.1A908.1 908.1 0 0 1 107 81.5zM232.4 265.4c-.1-.3-.4-.5-.8-.7-2.3-1.6-11.3-3.4-15.4-6.5-3.8-2.9-14.6-7.6-14.7-8.9v-.3c-.5-4.2-.6-15.7-.2-22v-.2l.3-2.4v-.4l2.3-14c.3-1.4 1.2-2.9.5-3.2h-1.3c-2.7.7-12.8 2.1-20.4 1.6-5.2-.4-7.3-1.2-8.3-1.6h-.8c-1.1 1.6.1 7.6 1.8 13.5.8 3 2.2 5.5 3.4 8.4a33.4 33.4 0 0 1 2.5 10.6c.7 7.9.9 10-.6 13.8l-1.1 2.6c-1.5 3.1-2.4 6-1.4 8l.2.3c.7 1.1 2.2 2 4.6 2.3l2.5.1c9.5.2 14.5 0 24 1.3 7 1 10.8 1.5 14.4 1.4l3.7-.3c3.4-.5 5-1.4 5.2-2.4 0-.3 0-.7-.4-1zM198.4 51c1.8-.2 3.1.7 4.4 1.4l3.2 1 .2.2c2.2 1 5 2.5 6.5 4l.1.2c2.8-.4 4.8-.5 6.2-.5-.4-1.2-.7-3.7-5.1-1.6-1.7-2-2.2-3.7-5.9-2.4-.2-.6-.4-1-.7-1.3l-.2-.2-1.2-1.6c-2.3-2.6-7.5-4.7-11.5-2.2-2.2 1.4-6.7 4.2-9.6 3.6a132.2 132.2 0 0 1-17.9-5.1c-1.8-1.6-4.5-3-9.6-3.5-2.1-.2-3.6 1.6-5.2 2.8.8.8 1.6 2 2 3.4-1.4-1.7-4-3.7-6.5-4.2-2.3-.4-4 1.2-6.4 2.5 3 0 5.5.4 7.6 1.3h.1l1.7.8c5 2 11 1.3 13.4 1.2l2-.3h.7c6.7-.4 8.6 1 15.3 2.5 6.9 1.6 8.5-1 16.4-2z" class="st4" />
		<path d="M232.8 262.3c-4-2.1-8.4-3.3-12.5-5.3-2.8-1.3-5.5-2.9-8.1-4.7l-4.2-2.7c-1-.6-2.3-1.2-3.1-2.2-1-1.3-.8-3.5-.8-5v-9.2c0-6.1.8-12 2-18 .6-2.8 1.6-5.8 1.5-8.6 0-2.2-1.4-2.4-3.3-2l1-4.9c.5-1.6 1.5-3 2-4.7.6-2.4 1-5 .8-7.4l-.3-2c0-.7 0-.7.5-1.3 1.2-1.7 2.1-3.7 2.9-5.7a62 62 0 0 0 1.3-28.4c-.6-4-1.3-8-2.2-12 2.6 1.3 5.4 2.3 8.3 2.4.6 0 2.2.3 2.7-.1 4-2.3 6.6-6.7 8.3-11l.7-1.7c.3-.7.7-1 1.3-1.6 2-2.2 3.8-4.7 5.2-7.4 2.5-5 3.7-11 1.5-16.2a16 16 0 0 0-3.5-5.2l-1-.9c-.4-.2-.4-.4-.2-.8l.3-1a15.4 15.4 0 0 0-2.2-12.3c-.2-.2-.7-.6-.7-.9-.1-.4.5-1.5.6-2a17.9 17.9 0 0 0-6.5-19.4c-1.3-1-3.6-1.4-4.5-2.8-1.2-2-2.3-4-5-3.7l-.7.2c-.6 0-.3 0-.8-.5l-.9-1a3 3 0 0 0-2.7-1c-.3 0-1.5.5-1.7.4l-.6-1.1a12 12 0 0 0-3.7-3.2 12 12 0 0 0-4.4-1.7c-.9-.1-1.7-.2-2.6 0-.5 0-2 .5-2.2.2-.5-.5-.3-2.7-.3-3.3l-.2-5.3c-.1-3 0-5.7.4-8.6.6-5.6 1.4-11.3 1.2-16.9 0-2.4-.2-5.3-1.7-7.3a9.4 9.4 0 0 0-4.3-3C186 0 181.3-.1 176.8.3c-3.5.3-8.2.9-10.9 3.6-1 1-1.2 2.6-1.5 4a66.5 66.5 0 0 0 .6 22.7c.3 1.3 0 2.7-.2 4l-.4 3c-.1.7-.1 2.2-.5 2.8-.6 1-2.4 1.1-3.3 1.3-1 .3-1.4.4-2.4.1-1-.3-1.8-.5-2.8-.3-1.4.3-2.5 1.3-3.5 2-.7.4-1.2 1-2 .9l-1.5-.7c-1.1-.4-2.5-.7-3.7-.4-1.6.5-2.9 1.8-4.2 2.6l-1 .5c-.8.2-.5 0-1 0l-1.7-.5c-1.5 0-3 .6-4.3 1.2-1.5.7-2.8 1.5-4 2.5-1.5 1.2-3.6 1.4-5.4 1.9-13.3 3.5-26.3 8-39.1 13-7.3 2.8-14.3 5.9-21.2 9.5-10.6 5.6-21.6 11.3-31.2 18.6a90.6 90.6 0 0 0-25 29.8 62 62 0 0 0-6 16.6c-.2 1.3-2 10.3 1.3 10 1.2-.2 2.1-1.7 2.9-2.5l3.8-3.7A221.8 221.8 0 0 1 32 124.5c2.6-1.8 5.4-3.1 8.1-4.7l1.8-1.2 1.8-1.1c.4-.2 2-1.6 2.4-1.5.7.1 2 2.2 2.5 2.8.9 1 1.6 2.2 2.3 3.4a53.5 53.5 0 0 1 5 17.3c1 6.1 1.4 12.2 4 18 2.2 4.6 5.5 8.6 9.6 11.7 4 3.1 8.8 5.3 13.7 6.6 5.7 1.5 11.5 1.6 17.4 2 9.7.4 19.6 2 26.9 9 3.5 3.3 6 8.4 10.7 10.2-4.5 8.3-4.4 18-4.5 27.1 0 4.4 0 8.8-.2 13.2 0 3.1 0 6.4-.5 9.5-.4 1.8-1.7 3.4-2.2 5.2-.7 2.1-1.1 4-2.4 6-1.2 1.8-2.4 3.6-3 5.8-.8 3.6-.2 7.5 3 9.7 2.8 2 6.4 3 9.8 3.5 4 .4 8 0 11.9-.8 2-.5 3.6-1.4 4-3.5.4-2.5-.3-5.4-1-7.8-.4-1.6-.9-3.2-1-4.9-.2-1.5.5-2.9.4-4.4 0-.9-.3-1.7-.5-2.5-.1-.6-.5-1.4-.5-2 0-.3.2-.4.3-.7.4-.7.5-1.6.7-2.4.4-2.8.1-5.8.4-8.6.1-1.8.3-3.7.9-5.4.5-1.7 1.3-3.2 2-4.8.9-2.4 1.8-4.9 3-7.1a39.6 39.6 0 0 0 5.2-19v-1.8c0-.6-.3-1.8-.1-2.4 0-.3.5-.7.8-1 .5-.6 1-1.2 1.3-1.9.5-.7.8-1.5 1-2.4.2-.5.2-1.8.5-2.2.3-.4 1.2-.7 1.5-1a35.7 35.7 0 0 0 11-12c.8 2.8 1.8 5.5 2.5 8.3a24.5 24.5 0 0 1 .7 5c0 1-.3 1.1-1 1.8a21 21 0 0 0-7.8 10.4c-4-1.8-3.9 3-3.8 5.5.2 4.4.8 8.9 2 13 .7 2.4 1.8 4.6 2.6 6.9 1 2.6 1.8 5.3 2.3 8 .7 3 1 6 .6 9.1a43 43 0 0 1-2.1 8.3c-1 3-2.4 5.9-1.4 9.2 1.2 4.2 5.1 5.2 9 5.6 9.3 1.1 18.7-.1 28.1 1 6.1.6 13 2 19 0 1.9-.6 4.3-1.8 4.8-3.9.5-2-1.2-3.5-2.8-4.3zm-82.9-127c-.6-.4-.4-.5-.5-1-.2-.8-.6-1-1.2-1.5-1.4-1-2.9-2-3.9-3.4a6.8 6.8 0 0 1-1.2-4.4c0-.5 0-1 .2-1.4l-.2-1c-.5-.6-1.6-1.1-2.3-1.6-6.2-4.5-13.1-7.6-19.6-11.6a40.2 40.2 0 0 1-8-6 19.8 19.8 0 0 1-4.7-8.5c-.8-3-1.2-5.9 1-8.3 2.6-3.3 4.2-6.8 5.3-10.9 1-3.4 1.7-6.9 5-8.6 4.4-2 8.3 1 10.7 4.4-.8-3.1-2.8-5.5-5.5-7.1-1-.7-1-.9-.8-2.2.3-2 1-3.7 2.2-5.2a18 18 0 0 1 9.4-6.4c3.8-1.2 8.3-1.8 12.1-.8.9.2 1.7.7 2.5 1a43.5 43.5 0 0 0 11.2 1.4c2.5-.1 5-.5 7.5-.5 2 0 3.8.3 5.8.8 4.2 1 8.6 2.8 13 2.2 2.2-.3 4.2-1.1 6.3-1.6 2.1-.6 4.6-1.3 6.7-.5a43 43 0 0 1 8.5 4c1.2.7 2.4 1.5 3.5 2.4a14 14 0 0 1 3 4.3c1 2 1.7 4.3 2 6.6.3 1.8.9 4.7-.5 6.2-1.8 2.2-6-.8-8-1.6-9-3.6-19-3.4-28.4-1.7-4.2.8-8.3 2.5-12.5 2.7a13 13 0 0 1-7.6-2.1 75.2 75.2 0 0 1-8-5.6c-.6-.3-1-1-1.5-.7-.5.3-1 1.8-1.3 2.4-.5.7-.8 1.2-1 2 0 1.7-.5 3.4-1 5-1.9 6-8 15.8-15.5 11.2a36 36 0 0 0-6-2.8c4 3.3 7.7 6.8 10 11.5 2.1 4.2 3.7 8.7 6.2 12.7 1.6 2.7 3.5 5.1 5.5 7.4.6.7.8 1.1 1.6 1.3h1.8c1.5.2 3 .6 4.4 1 2.6 1.1 4.5 3 6.5 5 .7.6 1.7 1.5 1.6 2.5 0 1.1-1.1 2.2-1.8 3-1.5 1.7-3 3.1-4.9 4.5-.8.6-1.7 1.5-2.6 2-1.6 1-3.5.2-5-.6zm.8 1.1c-2.2 0-2.9-1.8-4.7-2.5.6-.5 4.2 2.2 4.7 2.5zm7.6-22.8-.4 3.7c-1.9-.6-3.9-1-5.8-1.2-.5 0-1.2 0-1.6-.2-.8-.3-1.8-2.2-2.3-2.8a44 44 0 0 1-5-8.5c-1.8-4-2.5-8.3-4.9-12 1.4-.4 2.6-1.3 3.9-1.9.6-.2.3-.2.8.2l.9 1a43.6 43.6 0 0 0 8.9 7.5c1 .7 2.7 1.4 3.5 2.3.7.7.7 2.5 1 3.5l1.4 8.4h-.4zm4.9-3.6c-.6-2.9-1-5.7-1.3-8.6-.1-.7-.2-1 .5-1.3l1.6-1c1.1-.7 2.1-1.6 3-2.6-3 .5-6 .7-8.9-.8-3-1.4-5.4-4-7.6-6.3a62 62 0 0 1-1.7-1.9l-1-1c-.2-.6-.3-.5.2-1a18 18 0 0 0 3.6-12.4c0-.4-.2-1-.1-1.5s.8-1.1 1.1-1.6c2.5 3.7 7.2 6 11.2 7.6 2.8 1.1 5.4 1.6 8.4 1l8.4-2A64 64 0 0 1 198 76a44.4 44.4 0 0 1 12.3 3c.5.2 1.2.4 1.7.8.6.4.6.6.6 1.3.5 4.7-1 8.9-3 13.1a46.7 46.7 0 0 0-4.7 21.4c0 .5.3 1.6 0 2 0 .5 0 .3-.5.4-1.4.4-3.2.3-4.7.4l-6.6.4a43 43 0 0 1-23-4.8c-2.3-1-5.1-2.2-7-4zm55.7 8.3c-1.5.9-3.5.6-5.2.4-2.2-.1-3.7 0-5.5 1.6.5-5.9.8-11.6 2.7-17.2 1 1 2.4 1.5 3.8 1.9a8.1 8.1 0 0 0 .4 8.4c1.1 1.6 3.2 3 3.8 4.9zm8.5-36.8c2.7 3.1 4.4 7.3 4.1 11.5-.1 2-.5 3.7-2.3 4.8-2 1.1-3.7 2.4-4.9 4.4 2.4-1.4 5.6-3 8.4-2 2.6.9 3.6 3.8 3.9 6.2.8 6.7-3.1 13.5-7.4 18.3l-.3-.5a29 29 0 0 1-2.2 6.5c-1.3 2.6-3.5 6.2-6.3 7.3-2.7 1.1-6.2-.4-8.6-1.8-.6-.4-1.3-.7-1.8-1.2-.7-.5-.6-1.1-.8-2l-.9-4.4v-1.4c0-.6-.3-1.7-.1-2.2.2-.6 1.2-1.3 1.7-1.8.7-.7 1.5-1.3 2.4-1.7 1.5-.6 3-.4 4.6-.5a11 11 0 0 0 4-.8c1-.5.6-1.3.4-2.3-.5-1.5-1.5-2.6-2.4-3.9a9.9 9.9 0 0 1-2-6c0-1 0-3 .6-3.9.6-1 2.3-1.1 3.3-1.2-1.6-.3-3.3-.6-4.9-1.2a10.2 10.2 0 0 1-3-2c-.5-.4-.6-.4-.2-1.2 1.6-3.6 4-6.9 4.4-10.8.2-1.5.1-3 0-4.5 0-.1-.3-.7-.2-.9.2-.4 2.2-1 2.7-1.2 1.9-1 2.3-2 2.5-4.2.3-2 .1-4-.4-6a24.6 24.6 0 0 0-7.1-11.6c6-.5 11.3 2.7 13.7 8.4 1.9 4.5.9 9.4-1 13.8zM166 41.1c.3-2 .6-4 .7-6l3.1 3.2c.8.7 1.6 1.6 2.5 2 2 1 4.7.8 6.9.8 2.1 0 4.9.5 7-.2 2.3-.8 4.4-3 6.1-4.6.2 2.4.3 4.8.2 7.2V47c0 .6.1.4-.5.8-1.6 1-3.3 2-5.1 2.5-1.3.4-2.5 0-3.8-.3-3.4-.8-6.7-1.7-10-3-1.3-.4-3-1-4.2-1.8-.7-.7-1.3-1.8-2-2.6-.2-.3-1-1-1-1.4zM192 7.8c1 3.3.6 7 .4 10.4-.3 3.5-.5 7-1.2 10.5-.7 3.3-1.3 8.7-5.2 10a25 25 0 0 1-11 .1c-1-.1-2-.4-2.8-1-.8-.7-1.3-2-1.7-2.8-1-2-1.4-4.2-1.6-6.4-.3-2-.8-3.8-1-5.8-.2-2-.2-4-.2-6l.1-3.6c.2-1.7.2-3.7.6-5.4.5-1.7 2.4-2.6 3.9-3 4.2-1.5 9.2-1.4 13.5-.5 1.9.4 5.5 1.3 6.2 3.5zM147.6 45c2.5.5 5 2.5 6.5 4.2-.4-1.3-1.1-2.5-2-3.4 1.1-.8 2.1-1.9 3.4-2.5 1.5-.6 3.2-.2 4.7.1 2.4.5 4.4 1.4 6.3 2.8 2 1.4 5.2 2 7.6 2.7 2.6.8 5.3 1.4 8 2 2 .6 3.9 1 6 .3 2.6-.9 4.7-2.5 7.1-3.6a9 9 0 0 1 8.3.7c1.2.7 2.1 1.6 3 2.6l1 1.4.4.6c0 .4.2.5.6.2l.8-.2c1.2-.2 2.2 0 3.1 1 .4.3.7 1 1.1 1.3l.4.5c.3 0 1.3-.6 1.7-.7 2-.5 2.8.5 3.4 2.3a38 38 0 0 0-3.6.2c-.7 0-1.6.4-2.3.3-.6-.1-.9-.6-1.3-1a21.7 21.7 0 0 0-7.4-3.9c-1.2-.4-2.3-1-3.4-1.5-1.6-.7-3.1-.4-4.8 0-2.3.3-4.5 1.1-6.8 1.7-5.3 1.2-10.2-1-15.2-2.1-4.7-1.1-9.2-.2-13.9 0a23 23 0 0 1-9.7-1.4c-3-1.3-6-2.2-9.4-2.1 2.5-1.3 4.1-3 6.4-2.5zM4 142.4a73 73 0 0 1 28.4-45.8c6.2-4.8 12.9-9 19.7-12.8a260 260 0 0 1 34.3-16.4c12-4.6 24.2-8.4 36.5-11.9a15.4 15.4 0 0 0-2.8 7.3c0 1.1 0 1-1 1.1l-1.5.4c-3.3.9-5.5 3.5-6.8 6.5-1.2 2.5-1.7 5.3-2.6 8-.3.7-.6 1.9-1 2.5-.4.4-.7.5-1.2.7a935 935 0 0 0-39.9 18.7 343 343 0 0 0-33 18.2A144 144 0 0 0 4 142.4zm131.3 47.7c-4.9-7-11.7-12-19.9-14.3-8.9-2.5-18-1-27-2.3A31.2 31.2 0 0 1 67 162.4c-5.1-6.8-6-14.9-7-23-1.2-9-3.6-18.8-10-25.6a574 574 0 0 1 43.3-22c2.9-1.3 5.8-2.2 8.7-3.4-1 2.8.6 6.2 1.6 8.7 1 2.5 2 4.8 3.7 6.9 3.1 3.9 7.5 6.5 12 8.7 4.7 2.4 9.6 4.4 14.3 7l3.3 2c1 .8 2.7 1.6 3.5 2.7.4.5.2 1.3.2 2 .1.8.3 1.6.6 2.3a9.7 9.7 0 0 0 2.1 3c.5.5 2.2 1.6 2.3 2.2l-.4 1.2c0 .7.1.9.7 1.4a9.8 9.8 0 0 0 5.8 2.2 122 122 0 0 0-6.3 24.2 67.8 67.8 0 0 0 .3 19.6c.2 1 .7 2.2.7 3.2 0 .9-1.2 2-1.8 2.7l-2.4 2.8c-.4.6-1.4 2.4-2 2.5-.8 0-2.1-1-2.7-1.3-.9-.7-1.7-1.4-2.3-2.3zm2.2 58.7c-.2-.2 2.7-.4 3-.4 1.8 0 3.8.1 5.7.5.4 0 1.4.2 1.7.6.4.5.4 2 .6 2.6.4 1 1.2 2.5.8 3.5-.4 1.1-1.5-.4-2.2-.6.6 4.2 1.6 8.4 3.2 12.2.6 1.4 1.3 3 .4 4.3-.7 1.3-2.5 2-4 2-2.3.4-4.9.2-7.3 0-2.2-.2-4.6-.3-6.6-1.4-2.9-1.6-5-3.3-4.4-6.8.9-4.7 6.5-8 10.1-10.4-1.2 0-2.6.9-3.8.7-1.3 0-.7-1.6-.4-2.4.6-2 2.3-2.7 3.2-4.4zm50.3-53a41 41 0 0 0-1.6-10.6c-.8-2.7-2-5.3-3-8l-1-2c-.2-1 .4-1.9.8-2.8.6-1.8 1.2-3.7 1.6-5.5.8-3.7 1.3-7.4 1.8-11 .7-4.9 1.5-9.7 2.8-14.4-1.1 1.2-1.8 2.9-2.4 4.4a69 69 0 0 0-2.1 7c-1.3 4.5-2.2 9-3.6 13.5a43.7 43.7 0 0 1-11.5 18.5c-1 1-2 1.8-3 2.6-.5.3-1.6.8-1.9 1.3-.3.5-.1 1.6-.3 2.3-.5 2.3-2 4.1-3.6 5.8-1.8 2-3 3.8-3.6 6.5.5-.8 1.2-1.5 2-2.1.1-.1.5-.5.7-.5.4 0 .1-.2.3.3.3.7 0 2.3-.1 3.1l-.2 2.6c-.6 4-1.8 8-3.2 11.8-2.3 5.9-5.7 11.2-6.4 17.6-.3 3-.3 6-.5 9 0 .8.1 1.3-.6 1.6-1.6.6-4.1.2-5.8 0-1.7-.3-3.4-.6-5-1.1-.5-.1-1.4-.3-1.8-.6-.4-.5 0-2 .2-2.8.5-4.3.6-8.7.8-13 .5-9.1 1-18.6 4.3-27.2 1.3-3.6 3.4-6.8 5.8-9.8 1.4-1.8 3-3.5 4.3-5.4.4-.7 0-1.2-.2-2a63.3 63.3 0 0 1-.9-29 128.1 128.1 0 0 1 4-16.4c.2-.6.3-1.3.7-1.7l1.2-.6 3.8-2.6c2-1.6 3.5-3.7 5.3-5.4 1.4-1.2 1.9-2.5.9-4.2-1-1.6-2.8-2.5-3.8-4-.3-.5-.2-.6 0-1.2.1-.4.3-.6.3-1l.5-3.8c.8.7 2 1 3 1.4a75 75 0 0 0 31 4.2c2.2 0 4.6-.3 6.8-.6-.4 3.5.4 7 1 10.5.6 3.6 1.6 7 2.2 10.6 1.3 7.6 2.6 15.3 2.7 23 0 6.8-.7 14.1-4.7 19.8-.3.4-1.3 1.2-1.4 1.8-.2.6.3 2 .4 2.6.2 2.2 0 4.4-.4 6.6-.4 2.2-1 4.2-1.9 6.3-.4 1-.5 2.3-1 3.3-.1.5 0 .4-.3.6h-.8l-2.1.3c-6.8.7-14 1-20.7-.6 1.5-4.6 4.8-9 10.2-9zm-12.4 24.4c-.7-2.4-1.3-4.9-1.8-7.4-.3-1.6-.7-3.6-.3-5.3.3-1.3 1.4-.5 2.4-.3 1.5.5 3.1.8 4.7 1a64.4 64.4 0 0 0 19.3-.8l3.8-.7c2.1-.2.6 2.4.4 3.5l-.8 4.4c-.6 4-1.5 8.2-1.8 12.2a139 139 0 0 0 0 21.6c.2 1.1.4 1.4 1.2 2l3.5 2c3 1.5 6 3 8.7 4.8 1.3.8 2.4 1.7 3.7 2.4 1.6.8 3.4 1.5 5.1 2 1.7.7 3.5 1.2 5.2 1.8 1.1.4 2.5.8 3.4 1.6 3.2 3-6.3 4-7.6 4a55 55 0 0 1-10.2-.7c-4.8-.6-9.5-1.3-14.3-1.6-4.5-.3-9-.2-13.4-.3-3.6 0-9-.2-8.9-5 .2-4 3-7.2 3.8-11 .7-3.3.2-6.8-.1-10.1-.4-4.6-1.4-8.8-3.2-13-1-2.3-2.2-4.6-2.8-7z" />
		<path d="M188.8 258.1c-3.2 0-7-1-9.8-2.2l-2.4 3.3.3 6.6s14.3 4 12.5.8c-1.7-3.3-.7-8.5-.7-8.5zM222 259.8c-2.8 0-1 .6 1.3 3.3s.4 5.5-2.2 6.3l7.4.5 6.4-3.7s-10-6.5-12.9-6.4zM203.6 212.1a69.4 69.4 0 0 1-16.5 2.4c-4.8.1-10.4-.3-14-1.5l-.1 3.9s3.4 1.3 15 1.5c9.7.2 15.8-2.2 15.8-2.2l1.2-1.6s3.2-4-1.4-2.5zM203.1 220.6c-4.5 1.6-11 1.7-15.7 1.9-4.7.1-10.3-.3-14-1.5l1.2 4.1s1 .8 12.6 1c9.8.1 16-2 16-2l.7-1.5s1-2.6-.8-2z" class="st5" />
		<path d="M105.5 94.3c.6-.9-.8-5 1.5-9 2.9-5 8.5-7.2.5-4-14.2 5.8-50.7 24-61 29.5 8.6 5.4 12.6 18.4 13.9 31.5a63.2 63.2 0 0 0 .9 6v.7c9.4-25.5 42.9-52.6 44.2-54.7zM151.2 142.4c-9.6 10.7-33.6 30.6-50.8 31.7 24.2-.6 33.8 11.5 41 27.1 7.4-14.6 7.4-28.6 7.3-45 0-6.9 5-16.5 2.5-13.8zM166 78.4l-14.4-11.5s-3.1 8.6-2.8 13-5 7.4-2.4 9.9c2.5 2.4 9 7 11 9.5s3 19.7 3 19.7l6 7.7s2.7-5.1 3.1-17.5c.5-15.2-8.2-19.8-9.1-23.9-1-4 1.8-8.4 5.5-7zM188 146l-8.5 28.6s5 15.7 4.5 17.8c-.5 2.2-9.3 13.2-9.3 13.2l11 1s3.3-6 5.8-9.7c2.6-3.8 1-4.5 0-12.9s-3.8-26-3.4-38zM184.2 40.8 172 38.6l-1.4-3.7-3.5-.1c2.1 4.9 5 7 9.1 8.6 2.6 1 12.6 2.3 16.6-2.3 1.7-2 .6-7.6.6-7.6l-9 7.3zM219.6 101.6a18.1 18.1 0 0 1-4.2-9.2l-5.2 7 2 3.3 7.8.3c1 0 .8-.3-.4-1.4z" class="st6" />
	</g>
</svg>
