<svg xmlns="http://www.w3.org/2000/svg" width="16" height="16" viewBox="0 0 16 16">
  <path d="M8 14.14A6.465 6.465 0 108 1.21a6.465 6.465 0 000 12.93z" fill="#27265F"/>
  <path d="M6.439 13.858a.535.535 0 01.406-.799.54.54 0 01.602.54c0 .16-.086.271-.148.406a1.485 1.485 0 00-.147.541v.123c0 .59.356 1.106.873 1.328a.027.027 0 00.036-.037.827.827 0 01-.049-.295c0-.295.148-.529.369-.713.234-.197.467-.381.676-.59.221-.209.455-.406.602-.664.172-.295.27-.627.27-.995 0-.762-.454-1.475-1.155-1.795a1.894 1.894 0 00-1.106-.147 1.998 1.998 0 00-1.61 1.524c-.062.283-.05.577.012.86.037.135.074.258.135.381.086.123.173.221.234.332z" fill="#F49021"/>
  <path d="M8.139 10.741c1.16 1.706-.741 3.093-.741 3.093l-.016.008c-.01.022-.022.043-.033.065a1.966 1.966 0 00-.05.098 1.485 1.485 0 00-.147.541v.123c0 .59.356 1.106.873 1.328a.027.027 0 00.036-.037.827.827 0 01-.049-.295c0-.295.148-.529.369-.713l.15-.125c.183-.152.362-.3.526-.465l.096-.09c.19-.177.38-.353.506-.574.172-.295.27-.627.27-.995 0-.762-.454-1.475-1.155-1.795a1.859 1.859 0 00-.635-.167z" fill="#F05A2B"/>
  <path d="M8.233.559a.457.457 0 00-.307-.05c-.258.062-.565.517-.737.714-.234.27-.43.565-.603.872-.872 1.549-.835 3.38-.467 5.077.234 1.093.603 2.15 1.008 3.17l1.721.013c.074 0 .344-.885.381-.983.11-.32.221-.64.32-.959.172-.565.32-1.143.43-1.72.172-.91.233-1.857.086-2.779a5.528 5.528 0 00-.738-2.028C9.143 1.591 8.688.768 8.233.56zm-.22 4.707a.976.976 0 01-.972-.983c0-.54.443-.97.984-.97.54 0 .97.442.97.982 0 .541-.442.971-.983.971zM9.29 10.49c.32-.75.566-1.462.75-2.126.27.16.652.922.836 1.389.074.196.098.528.074.737-.062.43-.21 1.192-.602 1.733-.037.05-.123.025-.123-.037a3.44 3.44 0 000-.504 1.111 1.111 0 00-.357-.75c-.184-.196-.418-.38-.577-.442z" fill="#fff"/>
  <path d="M5.75 11.646c-.012.16-.012.331 0 .504 0 .061-.085.098-.122.036-.394-.54-.541-1.303-.59-1.733-.025-.209 0-.54.073-.725.185-.455.566-1.217.849-1.376.172.663.417 1.376.725 2.126-.16.061-.394.246-.578.418a1.23 1.23 0 00-.356.75zM7.766.583s-2.642 2.827.123 9.772h-.75S3.71 3.804 7.767.583z" fill="#09F"/>
</svg>
