<svg  xmlns="http://www.w3.org/2000/svg" width="16" height="16" viewBox="0 0 16 16" fill="#478AFF">
  <path d="M8 4.36a3.64 3.64 0 100 7.28 3.64 3.64 0 000-7.28zM13.24 4.68a1.66 1.66 0 100-3.32 1.66 1.66 0 000 3.32z"/>
  <path d="M15.28 4.68l-.08-.14-.1.12c-.28.3-.62.54-1 .68l-.12.06.04.1c1.38 3.34-.2 7.16-3.52 8.54-3.34 1.38-7.16-.2-8.54-3.52-1.38-3.32.2-7.16 3.52-8.54 1.72-.72 3.64-.66 5.32.12l.1.04.04-.1c.16-.38.42-.72.74-.96l.14-.1-.14-.08C10.54.3 9.28 0 8 0 3.58 0 0 3.58 0 8s3.58 8 8 8 8-3.58 8-8c0-1.14-.24-2.28-.72-3.32z"/>
</svg>
