<svg xmlns="http://www.w3.org/2000/svg" width="16" height="16" viewBox="0 0 16 16">
  <path d="M9.23 12.88c-.02 0-.35.29-.58.55-.45.5-.67.63-1.09.63-.33 0-.63-.15-.9-.43-.1-.11-.3-.25-.32-.25A80.2 80.2 0 013.3 9.92l-.1-.37c-.17-.3-.36-.83-.52-1.44l-.14-1.44c0-.55.02-1 .07-1.2.08-.39.4-1.4.5-1.55a5.22 5.22 0 013.11-2.77c.48-.14 1.53-.2 2.04-.1 1.01.17 1.9.67 2.68 1.5a5.76 5.76 0 011.38 2.57c.1.4.12.56.12 1.55 0 1.02-.02 1.13-.15 1.64l-.15.67c-.68 1.53-1.97 2.8-2.92 3.9z" fill="#454F61"/>
  <path d="M11.46 14.75a2.95 2.95 0 01-1.7-.94c-.3-.33-.63-.83-.6-.93.03-.06.29-.38 1.22-1.44a8.33 8.33 0 001.49-2.02c.14-.28.26-.5.28-.5.02 0 .1.13.18.3a6 6 0 001.22 1.63 6.36 6.36 0 001.96 1.39c.47.2.47.2.49.42.01.21-.12.57-.27.69-.1.09-2.5 1.22-2.79 1.32-.29.1-1.06.14-1.48.08zm-8-.32c-.45-.09-.83-.29-1.63-.84l-1.21-.83c-.51-.34-.62-.5-.62-.94v-.33l.23-.06a7.6 7.6 0 002.6-1.23l.51-.37.27.34c.13.2.81.97 1.5 1.75.7.77 1.26 1.43 1.26 1.45 0 .07-.54.52-.83.69-.46.26-.86.38-1.39.4-.26 0-.58 0-.7-.03z" fill="#59B6CC"/>
  <path d="M13.17 13a8.37 8.37 0 01-1.54-1.44c.17-.38.66-1.3.69-1.3l.35.4c.97 1.12 1.84 1.8 2.66 2.05l.2.1c0 .1-1.37.77-1.56.77-.04 0-.4-.26-.8-.58zm-11.81-.36c-.2-.09-1.1-.71-1.1-.77 0-.03.1-.06.23-.08.73-.12 1.8-.66 2.72-1.39.38-.3.3-.32.67.16l.23.27c.1.08.03.2-.3.5a6.64 6.64 0 01-1.94 1.3c-.27.1-.3.1-.51.01z" fill="#8EDEF0"/>
  <path d="M6.48 11.35C4.04 10.7 2.7 7.48 3.72 4.66c.26-.73.56-1.2 1.1-1.74a3.35 3.35 0 011.72-.98c.51-.11.77-.11 1.25-.01a4.07 4.07 0 012.7 2.35c.98 2.16.52 4.82-1.08 6.26-.38.36-1.02.7-1.5.81-.42.1-1.05.1-1.43 0z" fill="#D8D8DB"/>
  <path d="M7.15 10.52c.57 0 1.52-.23 1.52-.37 0-.07.05-.07-.57.02-.29.04-.71.1-.94.11l-.41.04v-.19l-.04-.42-.03-.24.6-.04c1.08-.06 2.35-.38 2.19-.54-.02-.02-.4.03-.86.1-1.15.18-1.86.23-1.92.14a1.35 1.35 0 01-.05-.43v-.36l.85-.05c.46-.04 1.04-.1 1.29-.15.74-.14 1.3-.4.86-.4-.08 0-.47.05-.87.11s-1.04.12-1.45.14l-.73.03v-.91l.73-.03c1.93-.08 2.66-.2 2.55-.36-.03-.07-.78-.06-2.6.04l-.68.03v-.92l1.57-.02c.87 0 1.6-.03 1.62-.05.14-.14-.33-.2-1.82-.24l-1.38-.03.02-.4.01-.42 1.41.02c1.32.02 1.54 0 1.35-.12a8.46 8.46 0 00-1.86-.22c-.99-.05-.9 0-.84-.54l.04-.29h.68c.98 0 1.36-.07 1.09-.18a6.46 6.46 0 00-.94-.07l-.85-.03v-.3c0-.34-.03-.33-.13.03l-.06.26-.54.04c-1.1.1-1.23.25-.2.25h.68l-.04.4c-.02.2-.07.4-.1.42a.93.93 0 01-.33.04c-.67 0-1.69.19-1.73.32-.02.06.09.07.66.03.38-.01.86-.05 1.05-.06l.37-.04-.03.42-.06.45c-.01.01-.43.05-.92.07-.8.03-1.31.09-1.39.16-.1.12.13.15 1.17.15h1.12v.86l-1.19-.02c-.9 0-1.19 0-1.2.05-.05.14.29.2 1.36.22l1.08.02v.97l-.35-.04-1.13-.14a4.2 4.2 0 00-.83-.07c-.19.12 1 .42 1.88.49.48.03.49.03.49.17l.03.42.04.28h-.24c-.13 0-.56-.05-.96-.1-.84-.13-.92-.13-.9-.05.05.15 1.43.47 1.99.47.14 0 .14.01.23.61l.04.26-.21-.03c-.66-.1-1.2-.15-1.23-.13-.1.1.85.36 1.28.36.17 0 .2.03.25.2.1.32.13.33.15.06l.02-.26h.34z" fill="#191F29"/>
</svg>
