<svg xmlns="http://www.w3.org/2000/svg" viewBox="0 0 1024 1024">
    <path
        d="M1024 256C1024 114.71 909.29 0 768 0H256C114.71 0 0 114.71 0 256v512c0 141.29 114.71 256 256 256h512c141.29 0 256-114.71 256-256V256Z"
        fill="#65ADF1" />
    <path
        d="M843 511.86v1.1a.5.5 0 0 1-.45.5c-33.37 3.12-59.48 30.23-59.48 64.4V714.8c0 9.57-2.01 18.8-5.64 27.23-10.35 24.08-33.84 41.58-61.16 41.58h-69.2l-.48-.6-269.18-337.33v337.93h-69.68a66.8 66.8 0 0 1-66.8-66.8V577.86c0-34.17-26.11-61.28-59.48-64.4a.5.5 0 0 1-.45-.5v-1.1c0-.25.2-.46.45-.49 33.24-3.24 59.22-31.02 59.22-65.12V307.2a66.81 66.81 0 0 1 66.8-66.8h69.66l.28.35 269.18 337.33V240.4h69.94a66.8 66.8 0 0 1 66.8 66.8v139.06c0 34.1 25.98 61.88 59.22 65.12a.5.5 0 0 1 .45.5"
        fill="#fff" />
</svg>