<svg xmlns="http://www.w3.org/2000/svg" viewBox="0 0 64 64" fill="#E0234E">
  <path d="M37.41 1.92c-.44 0-.84.1-1.21.22.82.55 1.54 1.57 1.54 2.6.06 1.38-.36 1.55-.66 2.36-.47 1.1-.29 2.43.4 3.41-.58-3.94 2.7-4.53 3.3-5.77.05-1.07-.84-1.8-1.54-2.29a3.42 3.42 0 0 0-1.83-.53Zm4.94.89c-.1.56-.09 1.06-.3 1.6-.29.6-.65 1.16-1.2 1.55-.32.25-.69.44-1.03.67a3.93 3.93 0 0 0-1.45 4.94c-3.99-1.55-7.7-2.66-12.04-2.66-3.4 0-6.95.44-9.96 2.12A9.72 9.72 0 0 0 13 13.59c-.81.8-1.56 1.67-2.5 2.32a10.39 10.39 0 0 1-4.82 1.89c-1.48 0-2.92 1.3-3.37 2.65-.32.86-.49 1.84.04 2.64a4.9 4.9 0 0 0 2 1.6 3.9 3.9 0 0 0 2.96 3.22c-.05.84-.06 1.63.06 1.91.14.32.83-.64 1.5-1.73-.08 1.08-.15 2.34 0 2.72.18.39 1.11-.83 1.92-2.17A17.97 17.97 0 0 1 32.9 44.52c-.2-1.69-2.26-2.62-3.21-2.39a8.13 8.13 0 0 1-2.53 3.56c.1-1.03.06-2.1-.16-3.12a10.1 10.1 0 0 1-1.93 3.93 4.37 4.37 0 0 1-3.85-1.89c-.3-.73-.34-1.54.14-2.21.26-.75.26-1.36-.22-1.72a3.1 3.1 0 0 0-1.61-.42c-.7 0-1.22.26-1.84.53-3.62 2.37-1.46 7.92 1.01 9.53-.6.1-1.71.15-2.17.6.67.41 1.37.76 2.1 1.05 1 .33 2.05.63 2.51.75v.02c1.3.26 2.6.36 3.92.28A14.8 14.8 0 0 0 38.6 40.35c.19.87.35 1.79.35 2.69 0 2.58-.46 4.97-1.6 7.3a14.55 14.55 0 0 1-5.19 5.81c2.38.14 5.66-1.16 7.62-1.98a24.9 24.9 0 0 1-9.65 7.91c1.79-.12 3.57-.42 5.3-.92a24.84 24.84 0 0 0 14.68-11.78 24.95 24.95 0 0 1-4.18 10.03A24.47 24.47 0 0 0 56.63 42.7c.53 2.47.68 5 .45 7.52 7.77-10.88 6.13-26.96-3.43-36.36 0 2.3-1.06 4.57-2.49 6.32a10.65 10.65 0 0 1-11.31 3.3 10.65 10.65 0 0 0 9.88-10.54c0-2.92-1.26-5.84-3.43-7.78a13.17 13.17 0 0 0-3.95-2.34Z"/>
</svg>
