<svg viewBox="0 0 16 16" xmlns="http://www.w3.org/2000/svg">
  <path d="M3.2 8l-1.6 2.77 1.6 2.77 1.6-2.77L3.2 8z" fill="#303F9F"/>
  <path d="M12.8 2.46l-1.6 2.77L12.8 8l1.6-2.77-1.6-2.77z" fill="#3F51B5"/>
  <path d="M14.4 5.23l-4.8 8.31h3.2L16 8l-1.6-2.77z" fill="#7986CB"/>
  <path d="M9.6 2.46L3.2 13.54h3.2l6.4-11.08H9.6z" fill="#FF4081"/>
  <path d="M3.2 2.46L0 8l1.6 2.77 4.8-8.31H3.2z" fill="#536DFE"/>
  <path d="M8 5.23l1.6-2.77 1.6 2.77H8zM1.6 5.23l1.6-2.77 1.6 2.77H1.6zM12.8 8l1.6 2.77L16 8h-3.2z" fill="#fff" fill-opacity=".1"/>
  <path d="M9.6 2.46l1.6 2.77 1.6-2.77H9.6zM3.2 2.46l1.6 2.77 1.6-2.77H3.2zM12.8 8l1.6-2.77L16 8h-3.2z" fill="#fff" fill-opacity=".2"/>
  <path d="M6.4 8L8 5.23 9.6 8H6.4zM0 8l1.6-2.77L3.2 8H0zM11.2 10.77l1.6 2.77 1.6-2.77h-3.2z" fill="#000" fill-opacity=".1"/>
  <path d="M0 8l1.6 2.77L3.2 8H0zM4.8 10.77l-1.6 2.77-1.6-2.77h3.2zm9.6-5.54l-1.6-2.77-1.6 2.77h3.2zM9.6 13.54l1.6-2.77 1.6 2.77H9.6zM6.4 8L8 10.77 9.6 8H6.4z" fill="#000" fill-opacity=".2"/>
  <path d="M4.8 10.77L6.4 8 8 10.77H4.8z" fill="#000" fill-opacity=".3"/>
  <path d="M4.8 10.77l1.6 2.77L8 10.77H4.8z" fill="#000" fill-opacity=".4"/>
  <path d="M3.2 13.54l1.6-2.77 1.6 2.77H3.2z" fill="#000" fill-opacity=".5"/>
</svg>
