<svg width="16" height="17" viewBox="0 0 16 17" fill="none" xmlns="http://www.w3.org/2000/svg">
<g clip-path="url(#clip0_3109_28)">
<path d="M13.4966 16.0028L10.6395 13.1461L10.5959 13.1524V13.121L4.51999 7.08824L6.01713 5.63486L5.13757 0.560547L0.964311 5.76016C0.253172 6.48058 0.122174 7.65206 0.633695 8.51657L3.2412 12.8642C3.64043 13.5345 4.36404 13.9354 5.14381 13.9292L6.4351 13.9166L13.4966 16.0028Z" fill="#18B6F6"/>
<path d="M15.0555 5.6599L14.4816 4.59493L14.1821 4.04992L14.0636 3.83692L14.0512 3.84946L12.4792 1.11183C12.0862 0.422726 11.3501 -0.00326722 10.5516 0.00299786L9.173 0.0405818L5.0621 0.053112C4.28236 0.0593771 3.57123 0.47284 3.17822 1.14315L0.676758 6.12975L5.14944 0.548014L11.0132 7.02558L9.97145 8.08431L10.5953 13.1524L10.6015 13.1398V13.1524H10.589L10.6015 13.1649L11.0881 13.641L13.4523 15.9651C13.5521 16.0591 13.7143 15.9464 13.6457 15.8273L12.186 12.9394L14.7311 8.20961L14.8122 8.11563C14.8434 8.07803 14.8746 8.04047 14.8995 8.00287C15.3986 7.32002 15.4672 6.40541 15.0555 5.6599Z" fill="#AC7EF4"/>
<path d="M11.032 7.00095L5.14952 0.554688L5.98542 5.60395L4.48828 7.0636L10.5829 13.1465L10.0339 8.09724L11.032 7.00095Z" fill="white"/>
</g>
<defs>
<clipPath id="clip0_3109_28">
<rect width="16" height="16.0029" fill="white"/>
</clipPath>
</defs>
</svg>
