<svg viewBox="0 0 410 425" fill="none" xmlns="http://www.w3.org/2000/svg">
  <path
    d="M116.4 45.7a58.3 58.3 0 0 0-28.3 8.6 56.4 56.4 0 0 0-23 28.5 449 449 0 0 0-21.2 152.8A468.2 468.2 0 0 0 58.2 338a56.3 56.3 0 0 0 57.3 40.9A363.7 363.7 0 0 0 251.8 337a314.5 314.5 0 0 0 57-39.4 285.3 285.3 0 0 0 45.7-50 55 55 0 0 0 11.9-34.9 55.2 55.2 0 0 0-11.7-34.5 284.7 284.7 0 0 0-44.6-50A329.4 329.4 0 0 0 190.4 61a387.1 387.1 0 0 0-64.1-14.6c-3.2-.5-7.6-.7-9.9-.6Z"
    fill="#0B84F3" fill-opacity=".2" />
  <path
    d="M92.4.6a74 74 0 0 0-36 11 71.6 71.6 0 0 0-29.3 36.2A570.5 570.5 0 0 0 .1 242 595.2 595.2 0 0 0 18.5 372a71.5 71.5 0 0 0 72.7 52 462.2 462.2 0 0 0 173.2-53c27.2-15 50.3-31 72.7-50.3 22.2-19.3 41.2-40.1 57.9-63.4A69.8 69.8 0 0 0 410 213a70.1 70.1 0 0 0-14.8-44 361.8 361.8 0 0 0-56.8-63.4 418.6 418.6 0 0 0-152-85.7 491.9 491.9 0 0 0-81.5-18.7A82 82 0 0 0 92.4.6Z"
    fill="#0B84F3" fill-opacity=".1" />
  <path
    d="M141.3 92.5a41.9 41.9 0 0 0-20.3 6.2 40.6 40.6 0 0 0-16.6 20.5A322.8 322.8 0 0 0 89.2 229a336.8 336.8 0 0 0 10.2 73.6 40.5 40.5 0 0 0 41.2 29.4 261.6 261.6 0 0 0 98-30 226.2 226.2 0 0 0 41.1-28.4c12.6-11 23.4-22.7 32.8-36a39.5 39.5 0 0 0 8.5-25 39.7 39.7 0 0 0-8.3-24.9 204.8 204.8 0 0 0-32.1-35.9 236.9 236.9 0 0 0-86-48.5C180.4 98.8 163 95 148.3 93c-2.3-.3-5.4-.5-7-.4Z"
    fill="#0B84F3" />
</svg>