<svg xmlns="http://www.w3.org/2000/svg" width="16" height="16" viewBox="0 0 16 16">
  <path d="M1.04 10.12C.22 5.76 2.4 1.54 7.36.98A2.2 2.2 0 005.3.34c-.76.24-.74.74-1.6 1.38-.84.48-1.28.1-1.9.62-.62.5-.2 1.66-.46 1.88-.26.46-1.06.86-1.22 1.42-.12.72.32 1.24.32 1.88.06.52-.52.82-.44 1.24.24.68.72 1.1.94 1.3.06.02.12.1.1.06z" fill="#FF0090"/>
  <path d="M9.9 4.08a.32.32 0 01-.32-.32c0-.18.14-.32.32-.32s.32.14.32.32-.14.32-.32.32zM1.24 10.6C.44 6.8 2.88 3.64 7.6 5.2c2.78 1.62 6.26 1.52 6.42.46.4-1.26-1.76-3.84-4.98-4.52C2.64-.1-.8 6.8 1.24 10.6z" fill="url(#rxjs_logo_paint0)"/>
  <path d="M11.72 11.02a3.5 3.5 0 002.68-.8 6.96 6.96 0 01-4.64 2.3c.86.74 1.7 1.06 2.5.92-2.22.62-4.08-.06-6.32-2.3-.12.6.52 1.54 1.18 2.14-3.84-1.66-4.18-6.82.48-8.1-4.82-2.32-7.56 2.2-6.22 5.9a8.52 8.52 0 008.66 4.56 7.2 7.2 0 005.78-4.56 6.56 6.56 0 01-2.88 1.4c2.16-1.08 3.32-2.92 3-5.42a5.75 5.75 0 01-1.78 2.44c1.58-2.44 1.3-3.72.14-5.1.84 2.28-.24 4.8-2.58 6.62z" fill="url(#rxjs_logo_paint1)"/>
  <path d="M10.6 13.64c-.16-.04.38.22-.66-.06s-2.1-.54-4.02-2.46c-.12.6.52 1.54 1.18 2.14 1.78 1.24.56.66 3.28 1.6.22-.42.22-.8.22-1.22z" fill="url(#rxjs_logo_paint2)"/>
  <path d="M7.16 3.9s.24-.34.32-.5c.12-.2.28-.54.28-.54s-1.82-.6-2.26-.66c-1.38.36-1.38.94-.62 1.82.1.1 2.28-.12 2.28-.12z" fill="url(#rxjs_logo_paint3)"/>
  <defs>
    <radialGradient id="rxjs_logo_paint0" cx="0" cy="0" r="1" gradientUnits="userSpaceOnUse" gradientTransform="matrix(12.0677 0 0 8.63259 11.21 4.62)">
      <stop stop-color="#F80090"/>
      <stop offset="1" stop-color="#4D008E"/>
    </radialGradient>
    <radialGradient id="rxjs_logo_paint1" cx="0" cy="0" r="1" gradientUnits="userSpaceOnUse" gradientTransform="matrix(12.215 0 0 9.24017 11.32 4.9)">
      <stop stop-color="#57008E"/>
      <stop offset=".29" stop-color="#5C008E"/>
      <stop offset="1" stop-color="#F80090"/>
    </radialGradient>
    <linearGradient id="rxjs_logo_paint2" x1="6.7" y1="11.18" x2="8.87" y2="14.8" gradientUnits="userSpaceOnUse">
      <stop stop-color="#F70090"/>
      <stop offset=".67" stop-color="#E50090"/>
      <stop offset=".83" stop-color="#D6008F" stop-opacity=".2"/>
      <stop offset="1" stop-color="#C10090" stop-opacity="0"/>
    </linearGradient>
    <linearGradient id="rxjs_logo_paint3" x1="6.53" y1="3.55" x2="6.22" y2="2.96" gradientUnits="userSpaceOnUse">
      <stop stop-color="#B2008F" stop-opacity=".15"/>
      <stop offset=".4" stop-color="#F70090" stop-opacity=".4"/>
      <stop offset=".65" stop-color="#F60090" stop-opacity=".89"/>
      <stop offset="1" stop-color="#FF0090"/>
    </linearGradient>
  </defs>
</svg>
