<svg xmlns="http://www.w3.org/2000/svg" viewBox="0 0 16 16">
  <linearGradient id="slidev_grad_1" x1="1.73" y1="1.18" x2="13.73" y2="14.24">
    <stop stop-color="#3ACBD4"/>
    <stop offset="1" stop-color="#2988B1"/>
  </linearGradient>
  <linearGradient id="slidev_grad_2" x1="-.72" y1="-1.93" x2="10.69" y2="11.54">
    <stop stop-color="#95F0CF"/>
    <stop offset="1" stop-color="#3AB9D5"/>
  </linearGradient>
  <linearGradient id="slidev_grad_3" x1="9.77" y1="6.21" x2="10.52" y2="12.96">
    <stop stop-color="#FFEB83"/>
    <stop offset="0" stop-color="#FFEB83"/>
    <stop offset=".08" stop-color="#FFDD35"/>
    <stop offset=".6" stop-color="#FFBB13"/>
    <stop offset="1" stop-color="#FFA800"/>
  </linearGradient>
  <path d="M4 2h8a2 2 0 0 1 2 2v8a2 2 0 0 1-2 2H4a2 2 0 0 1-2-2V4c0-1.1.9-2 2-2Z" fill="url(#slidev_grad_1)"/>
  <path d="M6 0a6 6 0 1 1 0 12A6 6 0 0 1 6 0Z" fill="url(#slidev_grad_2)"/>
  <path d="M7.2 8.61c-.17-.63-.25-.95-.17-1.16a.72.72 0 0 1 .42-.42c.21-.08.53 0 1.16.17l3.14.84c.63.17.94.26 1.09.44.13.16.18.36.15.56-.04.23-.27.46-.73.93l-2.3 2.3c-.46.45-.69.68-.92.72a.72.72 0 0 1-.56-.15c-.18-.15-.27-.46-.44-1.1L7.2 8.62Z" fill="url(#slidev_grad_3)"/>
</svg>
