<svg fill="#fff8" xmlns="http://www.w3.org/2000/svg" viewBox="0 0 32 32">
  <path fill-rule="evenodd" clip-rule="evenodd"
        d="M4.512 10C3.125 10 2 11.071 2 12.392v15.216C2 28.928 3.125 30 4.512 30h22.976C28.875 30 30 28.929 30 27.608V12.392C30 11.072 28.875 10 27.488 10H4.512Zm4.904 11.5L5.59 26H9l4-4.5L9 17H5.589l3.827 4.5ZM15 24h9v2h-9v-2Z"
        />
  <path
    d="M4 7a2 2 0 1 0 0-4 2 2 0 0 0 0 4ZM10 7a2 2 0 1 0 0-4 2 2 0 0 0 0 4ZM16 5c0-1.105.776-2 1.732-2h10.536C29.224 3 30 3.895 30 5s-.776 2-1.732 2H17.732C16.776 7 16 6.105 16 5Z"
    />
</svg>
