<svg xmlns="http://www.w3.org/2000/svg" viewBox="0 0 16 16">
  <path d="M14.855 12.219 8.43 15.857v-2.83l4.004-2.204 2.42 1.396Zm.44-.397V4.22l-2.35 1.356v4.89l2.35 1.356ZM1.44 12.22l6.424 3.635v-2.83L3.86 10.824l-2.42 1.396ZM1 11.822V4.22l2.35 1.356v4.89L1 11.822Zm.274-8.095L7.864 0v2.737L3.642 5.06l-.034.019-2.334-1.35Zm13.744 0L8.43 0v2.737l4.22 2.325.033.019 2.335-1.354Z" fill="#8ED6FB"/>
  <path d="m7.864 12.382-3.948-2.174V5.905l3.948 2.28v4.197Zm.566 0 3.949-2.171V5.905L8.43 8.185v4.197ZM4.18 5.407l3.967-2.18 3.964 2.18-3.964 2.288L4.18 5.407Z" fill="#1C78C0"/>
</svg>
