<svg xmlns="http://www.w3.org/2000/svg" width="16" height="16" viewBox="0 0 16 16">
  <path d="M10.59 8.01c0 1.33-1.17 2.41-2.6 2.4C6.56 10.42 5.4 9.33 5.4 8c0-1.34 1.17-2.41 2.6-2.4 1.43 0 2.58 1.09 2.58 2.42zm4.79-3.43a.24.24 0 00-.3-.15l-2.76.88c-.15.05-.2.02-.33-.1a5.58 5.58 0 00-3.97-1.6c-2.86 0-5.19 1.95-5.2 4.37a3.94 3.94 0 000 .15c0 .16-.02.23-.18.28l-2.47.8a.24.24 0 00-.16.3l.61 1.9c.04.13.18.2.3.16l2.76-.88c.16-.05.2-.03.31.08a5.63 5.63 0 004 1.62c2.85 0 5.18-1.95 5.19-4.37v-.16c0-.15.02-.22.16-.27l2.5-.8c.12-.04.19-.17.15-.3l-.61-1.9" fill="#4C205B"/>
</svg>
